<svg version="1" xmlns="http://www.w3.org/2000/svg" width="2448" height="2448" viewBox="0 0 1836.000000 1836.000000"><path d="M1007 5.7c0 .4 2.1 3.1 4.6 5.8 5.3 5.6 27 28.8 38.5 41 4.1 4.4 10.7 11.3 14.5 15.4 3.8 4.1 8.7 9.3 10.9 11.6 7.2 7.6 17.7 18.9 24.4 26 10.5 11.2 21.5 23 36.7 39 7.7 8.3 17.2 18.3 21 22.4 3.8 4.1 8 8.6 9.4 10.1 1.4 1.4 8.1 8.6 15 16 6.9 7.3 13.6 14.5 15 16 4.4 4.6 28.5 30.3 29.5 31.4 1.9 2 30.9 33.1 36.1 38.6 2.9 3 6.6 7.1 8.4 9l3.1 3.5-.6 9.5c-.3 5.2-.8 10.8-1 12.5-.5 2.9-4.9 42.5-6 53-.3 2.7-1 8.4-1.5 12.5s-1.2 10.4-1.5 14c-.4 3.6-.8 7.6-1 9-.1 1.4-.6 5.4-1 9-.4 3.6-.9 7.2-1 8-.2.8-.6 4.4-.9 8-.4 3.6-1.1 9.9-1.6 14s-1.2 10-1.5 13c-.3 3-.8 7.1-1 9-.6 4.5-3.5 30.1-4.1 36-.2 2.5-.6 6.1-.9 8-.7 5.2-1.3 10.4-2.5 21.5-.6 5.5-1.3 11.6-1.5 13.5-.3 1.9-1.4 11.8-2.5 22s-2.3 20.5-2.6 23c-.3 2.5-.7 6.1-.9 8-.2 1.9-.7 6.2-1 9.5-.3 3.3-.8 7.1-1 8.5-.3 1.4-.7 5.2-1 8.5-.3 3.3-.8 7.6-1 9.5-.2 1.9-.7 5.7-1 8.5-2.5 23.8-4.8 41.1-5.5 42.5-1.7 3.2-5 5-23 12.5-21.4 8.9-181 76.1-185.5 78-1.6.7-9.5 4.1-17.5 7.4-8 3.3-27.3 11.5-42.9 18-15.7 6.6-29.3 12.7-30.3 13.5-1.7 1.5-1.8 4.3-1.8 48.4v46.8l85.3-.1c46.8 0 85.5.1 85.8.2.4.2-4 8.5-9.8 18.5-5.7 10.1-11.7 20.5-13.2 23.3-1.6 2.7-15.9 27.8-31.9 55.7-20.9 36.5-28.7 51-27.9 51.7.7.5 19 11.1 40.7 23.6 35.2 20.2 39.7 22.5 41.5 21.4 1.1-.7 25-18.6 53-39.9 28.1-21.2 61.4-46.4 74-56 37-28 59.3-44.9 70-53 5.5-4.2 18.6-14.1 29-22 10.5-7.9 21.8-16.6 25.3-19.2 3.5-2.6 7.4-4.8 8.6-4.8 1.3 0 8.6 2.7 16.2 6.1 7.6 3.3 20.2 8.8 27.9 12.1 7.7 3.3 15.9 6.9 18.3 7.9 5.7 2.6 63.1 27.6 174.2 75.9 25.6 11.1 48.9 21.3 51.8 22.6 2.9 1.3 5.5 2.4 5.7 2.4.2 0 2.8 1.1 5.7 2.4 2.9 1.4 15.4 6.8 27.8 12.2 31.8 13.6 32.8 14.2 34.5 17.4.8 1.5 4.8 13.9 8.9 27.6 6.7 22.5 48.6 160.8 68.8 227.4 6.8 22.5 15.2 50.5 22.8 75.5 8.8 29.1 12.3 40.1 13.1 41 .5.5.9-90.8.9-234.9 0-209.8-.2-236.1-1.5-238.9-1.9-3.9-.2-2.7-33.5-23.7-15.1-9.5-29.7-18.7-32.5-20.5-2.7-1.8-30.9-19.5-62.5-39.5s-59.7-37.7-62.5-39.5c-9.8-6.3-42.6-27.1-47.4-30-2.7-1.7-19.8-12.5-38-24-18.2-11.6-39.2-24.8-46.6-29.5-52-32.8-68.5-43.3-70.4-45.1-1.1-1.1-2.1-3-2.2-4.2 0-1.2-.2-4.5-.4-7.2-.1-2.8-.6-13.8-.9-24.5-.4-10.7-.9-22.4-1.1-26-.2-3.6-.7-13.7-1-22.5-.3-8.8-.8-20.3-1-25.5-.2-5.2-.7-16-1-24-.3-8-.7-19.7-1-26-.8-18.7-1.4-33.6-2-49.5-.3-8.3-.7-19.5-1-25-.3-5.5-.7-16.3-1-24-.3-7.7-.8-18.5-1-24-.2-5.5-.7-16.5-1-24.5-.3-8-.7-19.5-1-25.5-.3-6.1-.7-17.1-1-24.5-.3-7.4-.8-18.2-1-24-.2-5.8-.7-17-1-25-1.9-52.3-2.3-59.1-3.9-61.4-.7-1.2-29.4-18.3-63.7-38-34.3-19.8-77.9-44.9-96.9-55.9-52.7-30.5-76.5-44.2-126-72.7-25-14.5-52.7-30.4-61.5-35.5-8.8-5.1-17.6-10.2-19.5-11.2-1.9-1.1-11.8-6.8-21.9-12.7C1006.6 4.5 1007 4.7 1007 5.7zM748 51.6c-43.2 24.9-85.5 49.4-94 54.3-8.5 4.9-36.9 21.2-63 36.3-26.1 15.1-75.6 43.6-109.9 63.4-34.3 19.7-62.9 36.8-63.7 38-1.4 2-1.5 3.8-2.9 38.4-.3 7.4-.7 18.2-1 24-.2 5.8-.7 17.9-1 27-.3 9.1-.8 19.2-1 22.5-.2 3.3-.7 13.6-1 23-.3 9.3-.8 21.5-1 27-.3 5.5-.7 16.5-1 24.5-.3 8-.7 18.8-1 24-.2 5.2-.7 16.2-1 24.5-.3 8.2-.8 19.5-1 25-.3 5.5-.7 16.3-1 24-.3 7.7-.7 18.5-1 24-.2 5.5-.7 17.2-1 26-.3 8.8-.8 20-1 25-.2 4.9-.7 16.9-1 26.5-.3 9.6-.8 20.4-1 24-.2 3.6-.7 15-1.1 25.5-.3 10.4-.8 20.3-.9 22-.2 1.6-.3 4.2-.4 5.7-.1 3.7-2.2 5.4-19.1 16-8 5.1-41.5 26.3-74.5 47.2-33 20.8-64 40.5-69 43.6-4.9 3.1-41.6 26.3-81.5 51.5S65.2 920 46.5 931.8C.4 960.9 2.3 959.6 1.1 963.3c-1.3 4-1.4 475-.1 474.2.5-.3 1.2-2 1.6-3.8 1-4 .9-3.9 1.7-5.7.6-1.5 10.3-33.1 11.7-38.5.5-1.7 1.8-6.2 3-10 1.2-3.9 2.7-9 3.5-11.5.7-2.5 4.9-16.7 9.5-31.5 8.5-28.2 16-52.7 46-152 10-33 20.8-68.8 24.1-79.5 3.3-10.7 7.1-23.3 8.4-28 3.9-13 4.8-14.4 11.9-17.5 3.3-1.5 7.5-3.3 9.1-4.1 3.9-1.7 54.4-23.7 118-51.4 28.1-12.2 52.8-23 55-24 2.2-1 17.5-7.6 34-14.8 16.5-7.2 53.8-23.4 83-36.1 29.1-12.7 54-23.1 55.2-23.1 2.2 0 7.5 3.9 77 56.6 16.6 12.6 52.7 40 80.3 60.9 27.6 20.9 61.9 46.9 76.2 57.7 16.2 12.4 26.9 19.8 28.3 19.8 1.2 0 15.3-7.5 31.1-16.6 15.9-9.2 30.9-17.8 33.4-19.2 2.5-1.3 7.2-4.1 10.5-6 3.3-2 6.1-3.7 6.3-3.8.2-.1-7.6-14.1-17.4-31-9.7-17-18.8-32.9-20.2-35.4-1.4-2.5-12.1-21.2-23.7-41.5-11.7-20.4-21.7-37.9-22.3-39l-1-2.1h171.3l.5-44.1c.3-24.3.2-45.7-.2-47.4-.3-1.8-1.4-3.7-2.5-4.3-2.4-1.4-3.7-2-77.8-33.1-19.2-8-36.3-15.2-38-16-1.6-.7-10-4.2-18.5-7.8-45.1-19-96.2-40.4-126-52.9-35.5-14.8-38.9-16.8-39.1-22.8-.1-1.7-.2-3.3-.3-3.8-.1-.4-.5-3.9-1-7.7-.4-3.9-1.4-13.1-2.2-20.5-1.7-14.6-1.8-15.2-2.8-25.3-.4-3.7-.9-7.6-1-8.5-.2-.9-.7-4.9-1.1-8.7-.3-3.9-.8-8.4-1.1-10-.2-1.7-1.7-15.2-3.4-30-1.7-14.9-3.2-28.6-3.5-30.5-.2-1.9-.7-6-1-9-.3-3-.7-7.1-1-9-.2-1.9-.7-6-1-9-.3-3-.8-7.1-1-9-.2-1.9-.6-5.5-.9-8-1.8-16.4-2.7-24.9-3.1-27.7-.3-1.8-1.4-11.7-2.5-22-1.2-10.3-2.3-20.2-2.5-21.8-1-8-1.5-12.5-2-18-.3-3.3-.8-7.5-1.1-9.2-.2-1.8-.7-5.4-.9-8-.3-2.7-.7-6.8-1.1-9.3-.6-4.8-.9-6.9-1.8-16.5-.3-3.3-.8-7.1-1.1-8.5-.2-1.4-.7-5-1-8-.3-3-.7-7.6-1-10.1-.3-2.5-1.2-10.4-2-17.5s-1.5-14.8-1.5-17.1c0-4.4.1-4.5 15.5-20.9 7.1-7.5 28.6-30.3 31.4-33.3 1.8-2 8.9-9.5 15.6-16.6 6.7-7.2 13.7-14.6 15.5-16.5 1.8-1.9 8.9-9.5 15.9-16.9 6.9-7.3 13.3-14.2 14.1-15.2.9-.9 7.5-8 14.7-15.6 7.2-7.6 14.5-15.4 16.3-17.3 1.8-1.9 8.7-9.3 15.4-16.4 6.6-7.1 13.5-14.4 15.1-16.1 1.7-1.8 8.4-9 15-16 13.5-14.4 14.2-15.1 30.4-32.4 6.4-6.9 13.4-14.4 15.6-16.7 2.2-2.3 9.4-10 16.1-17.1C827 8.8 829.4 6 827.9 6.1c-.8 0-36.7 20.5-79.9 45.5z"/><path d="M913.5 499.1c-2.2 1.2-10.7 6.1-19 10.9-12.7 7.4-49.7 28.8-172 99.3-10.4 6.1-27.5 15.9-38 22-10.4 6-28.8 16.6-40.8 23.5-14 8-21.4 12.8-20.5 13.3 6.3 3.4 131.4 54.9 133.6 54.9 2.4 0 36.7-19.2 93.7-52.5 42.4-24.8 65.3-37.7 67.4-38.1 2.6-.5 3.6 0 50.1 27 7.4 4.4 15.5 9 18 10.4 2.5 1.4 6.2 3.6 8.2 4.9 2.1 1.2 4 2.3 4.3 2.3.3 0 2.2 1.1 4.3 2.4 2 1.3 19.7 11.6 39.3 23 25.1 14.5 36.6 20.6 38.7 20.6 1.7 0 5.2-.9 7.9-2.1 2.6-1.1 21.5-9 41.8-17.5 20.4-8.5 37.9-15.9 39-16.4 1.7-.7 19.6-8.2 38.8-16.2 3.2-1.4 5.9-2.9 5.9-3.4.1-.7-64.8-38.7-93.2-54.6-3-1.7-7.2-4.2-9.2-5.5-2.1-1.2-3.9-2.3-4.1-2.3-.2 0-6.4-3.5-13.8-7.8s-15.4-9-17.9-10.4c-3.9-2.2-112.4-64.9-144.5-83.4-6-3.5-11.6-6.4-12.5-6.4-.8 0-3.3 1-5.5 2.1zM1344.5 947.3c-11 8.4-31.2 23.8-45 34.2-45.3 34.3-48.8 37-50.1 39-1 1.6-1.3 19.7-1.5 92.8-.2 64.1-.6 91.4-1.3 93-.9 1.7-38.9 24.6-56.6 34-1.4.8-6.8 3.9-12 6.9-20.5 11.9-78.8 45.3-83.6 48-9 5-8.2 2.3-12.9 39.8-.9 6.9-1.8 13.6-2 15-.2 1.4-.9 6.3-1.5 11s-2.6 20.6-4.5 35.5c-1.9 14.8-3.7 28.8-4 31-1.2 9-1.6 12.1-2.1 14.8-.3 1.5-.1 2.7.4 2.7.6 0 9.5-4.9 19.9-10.8 10.3-6 28-16.2 39.3-22.7 11.3-6.5 36.7-21.1 56.5-32.5 54.7-31.5 117.7-67.8 150.1-86.3 20-11.5 29.4-17.4 30.2-19.1.7-1.6 1.1-53.1 1.1-172 .1-93.3 0-169.6-.1-169.6-.2 0-9.3 6.9-20.3 15.3zM472 1066.2c-.1 72.8-.1 149-.1 169.4-.1 28.5.2 37.6 1.2 39.2.7 1.1 4 3.6 7.3 5.5 3.4 1.8 8.4 4.6 11.1 6.2 2.8 1.5 12.2 6.9 21 12 8.8 5 18.3 10.4 21 12 2.8 1.5 14.2 8 25.5 14.5 19.8 11.3 141.6 81 178.5 102 9.9 5.6 21.1 12.1 24.8 14.3 3.7 2.2 6.9 3.8 7.1 3.6.2-.2-.7-7.8-1.9-16.9-1.3-9.1-2.6-18.5-2.9-21-2.8-22-3.7-28.9-4.1-31.5-.4-3.1-4.2-31.6-5.1-38.3-1.2-9.9-3.5-27-4-30.6-.4-2.3-1.2-5-1.9-6.2-.7-1.1-12-8.1-25.2-15.6-13.1-7.5-25.8-14.8-28.3-16.2-2.5-1.4-13.4-7.6-24.3-13.8-10.9-6.2-21.3-12.1-23-13.2-1.8-1-15.1-8.6-29.7-16.8-14.6-8.3-27.4-15.9-28.5-16.9-2.1-2.1-2.2-4.9-2.5-127.5-.1-51.8-.3-57.3-1.8-59.6-.9-1.5-9.1-8.2-18.2-15-9.1-6.8-33.8-25.5-55-41.4-21.2-16-39.1-29.4-39.7-29.8-1-.6-1.3 26-1.3 131.6z"/><path d="M1004.3 1076.2c-.4.7-1.3 2.2-1.9 3.3-.6 1.1-8 13.7-16.4 28-8.4 14.3-21.8 37-29.7 50.5-8 13.5-15 25.4-15.6 26.5-.7 1-2.2 3.7-3.5 5.8-1.3 2.1-3.1 5.3-4.1 7-7.1 12.4-13.6 23.4-14.5 24.4-.8.9-4.8-5.2-15.7-24-20.1-34.6-55-94.8-56.3-97.2-7.5-13.6-14.2-24.5-15.1-24.5-.6 0-1.9.6-3 1.4-1.1.7-4 2.4-6.5 3.8-14.8 8.3-69.6 40.1-70.3 40.8-1 .9-1.1 5.7-.3 11.7.6 4 1 7.5 2.1 16.3.3 1.9 1.4 11.1 2.5 20.5 1.1 9.3 2.3 18.7 2.5 20.7.3 2.1.7 5.7 1 8 .3 2.4.7 5.9 1 7.8.5 4.2 1.2 10.4 2 18.5.4 3.3.8 6.7 1 7.5.2.8.7 4 1 7 .3 3 1 8.9 1.5 13 .6 4.1 1.2 9.5 1.5 12 .3 2.5.7 6.1 1 8 .2 1.9.7 5.7 1 8.5.3 2.7.7 6.6 1 8.5.6 4.2 1 7.7 3 24.5 1.9 15.3 1.9 15.3 4.5 36.5 2.4 19.9 2.8 23.2 3.5 29 .3 2.5.7 6.1 1 8 .2 1.9.7 5.5.9 8 .3 2.5 1.7 13.6 3.1 24.8 3.6 29.4 4.7 25.5-10.1 36.4-7 5.1-17 12.5-22.3 16.4-5.3 3.9-45.1 33.1-88.6 64.9-43.4 31.9-80.8 59.3-83.1 60.9-2.2 1.7-9.4 6.9-15.8 11.6-6.5 4.7-13 9.4-14.4 10.6-1.5 1.1-17.1 12.5-34.7 25.4-17.6 12.8-34.6 25.3-37.9 27.7-3.2 2.5-7.2 4.7-9 5-1.7.3-7.8-.7-13.6-2.1-5.8-1.4-26.9-6.4-47-11.1-48.8-11.5-121.1-28.7-139-33-8-1.9-33.6-8-57-13.5s-46.1-10.9-50.5-12c-47.1-11.3-72.1-17-73.3-16.8-1.2.3 6.7 5.1 32.2 19.7 2.2 1.3 12 7 21.6 12.6 9.6 5.6 21.8 12.7 27 15.7 5.2 3.1 25.9 15.1 46 26.8 20.1 11.7 40.8 23.8 46 26.8 5.2 3 13.3 7.7 18 10.5 4.7 2.7 9.9 5.8 11.5 6.7 8.2 4.6 66.6 38.6 70.5 41 24.7 15.1 136.2 79 137.9 79 1.2 0 4.8-1.3 8-2.9 6.5-3.2 28.3-14.6 37.6-19.6 3.3-1.8 13.7-7.2 23-12 9.4-4.8 22.4-11.6 29-15 6.6-3.4 18.8-9.7 27-14 8.3-4.3 19.1-9.9 24-12.5 5-2.6 16.7-8.7 26-13.5 9.4-4.8 21.1-10.9 26-13.5 5-2.6 15.8-8.2 24-12.5 8.3-4.3 20.2-10.5 26.5-13.8 6.3-3.3 17.5-9 24.8-12.8 45.2-23.5 63.9-33.2 76.7-39.9 66.2-34.6 63.1-33.1 66.2-31.9 2.9 1.1 20.9 10.4 45.8 23.6 7.7 4.2 18.3 9.8 23.5 12.5 19.7 10.5 26.7 14.2 33.5 17.8 8.6 4.6 18.2 9.6 54 28.5 15.4 8.1 31.2 16.4 35 18.5 14 7.5 84.6 44.8 105.5 55.7 5.8 3.1 12.8 6.8 15.5 8.3 2.8 1.5 10 5.3 16 8.5 6.1 3.2 14.2 7.5 18 9.5 3.9 2 11.1 5.8 16 8.4 5 2.6 14.9 7.9 22 11.7 15.9 8.6 22.7 11.9 25.6 12.4 2.5.5 5.3-.8 27.5-13.6 9.4-5.4 18.6-10.6 20.5-11.7 1.9-1.1 9.3-5.3 16.4-9.4 18-10.4 98.8-56.7 217-124.3 135.3-77.5 132.5-75.8 132.5-76.6 0-.4-1.9-.3-4.2.2-5.2 1.2-110.9 25.5-165.3 38-39.4 9.1-46.4 10.7-77 17.8-9.3 2.2-30 7-46 10.7-15.9 3.6-41.6 9.6-57 13.1-15.4 3.6-29.4 6.5-31.1 6.5-2.5 0-11.9-6.6-48.5-33.9-25-18.6-51.7-38.6-59.4-44.3-7.7-5.7-30-22.3-49.5-36.8-19.5-14.6-46.3-34.5-59.5-44.3-96.8-72.1-100.2-74.7-100.8-77.1-.4-1.3-.2-5.1.3-8.4.5-3.2 1.2-8.4 1.5-11.4.3-3 1-8.2 1.5-11.5.5-3.3 1.2-8.7 1.5-12 .4-3.3.8-6.7 1-7.5.2-.8.7-4 1-7 .3-3 .8-6.6 1-8 .4-2.4 2-15.2 3-23.3.7-5 1-7.5 4.5-34.2 1.6-12.7 4.1-31.8 5.4-42.5 1.4-10.7 3.9-30.1 5.6-43 1.7-12.9 4-30.5 5-39 1.1-8.5 2.2-17.1 2.5-19 .2-1.9 1.2-9.1 2-16 2.5-18.9 2.5-18.8 3.8-28.6.8-5.5.9-9.9.4-11.1-.5-1.1-17.1-11.4-38.4-23.9-46.8-27.3-42-24.7-43-23.2z"/></svg>