<svg xmlns="http://www.w3.org/2000/svg" width="599" height="148" viewBox="0 0 706.28 174.45" shape-rendering="geometricPrecision" text-rendering="geometricPrecision" image-rendering="optimizeQuality" fill-rule="evenodd" clip-rule="evenodd"><defs><style>.fil0,.fil1{fill:#e32124}.fil1{fill-rule:nonzero}</style></defs><g id="Layer_x0020_1"><g id="_2023790847936"><path class="fil0" d="M59.39 63.29c4.2 1.76 8.33 3.48 12.45 5.22.33.14.58.12.89-.06 4.85-2.81 9.71-5.61 14.56-8.42.32-.19.54-.2.87-.01 4.85 2.82 9.71 5.61 14.56 8.43.33.19.59.19.93.04 2.64-1.12 5.28-2.21 7.93-3.32 1.47-.61 2.95-1.24 4.45-1.87-.07-.06-.1-.1-.14-.13-9.22-5.31-18.44-10.63-27.65-15.96-.37-.21-.63-.23-1-.01-6.53 3.78-13.06 7.55-19.59 11.32-2.73 1.57-5.45 3.15-8.26 4.77zm14.09 74.26c-.6-4.52-1.2-8.96-1.77-13.39-.05-.36-.19-.56-.5-.74-4.88-2.77-9.75-5.56-14.63-8.34-.3-.17-.41-.36-.41-.71-.02-5.62-.05-11.23-.07-16.85 0-.36-.11-.58-.39-.79-3.5-2.63-6.99-5.27-10.49-7.91-.08-.06-.18-.1-.16-.09 0 10.69 0 21.42-.01 32.14 0 .4.2.55.49.72 5.6 3.19 11.19 6.39 16.78 9.58 3.7 2.11 7.39 4.23 11.16 6.38zm28.44.02c.12-.05.16-.07.21-.09 9.24-5.32 18.48-10.64 27.73-15.95.35-.2.44-.43.44-.81 0-10.51.01-21.03.03-31.55v-.6c-.14.09-.21.14-.27.19-3.51 2.66-7.02 5.33-10.53 7.99-.27.2-.35.41-.35.73 0 5.61-.02 11.22-.02 16.84 0 .4-.13.59-.47.79-4.84 2.77-9.67 5.55-14.51 8.32-.34.2-.5.43-.55.83-.12 1.19-.3 2.38-.45 3.58-.42 3.23-.84 6.45-1.26 9.73zm2.9-32.78c.14-.1.27-.18.39-.28 8.04-6.09 16.09-12.18 24.13-18.28.29-.21.5-.27.85-.12 11.21 4.89 22.43 9.77 33.65 14.64.37.16.58.37.71.77 3.5 11.63 7.03 23.27 10.55 34.9.04.13.09.25.14.38.02-.01.05-.02.07-.02v-.25c0-14.8-.01-29.59.01-44.39 0-.61-.2-.92-.7-1.24-12.27-7.74-24.53-15.51-36.79-23.26-.33-.21-.46-.43-.47-.81-.05-1.66-.13-3.32-.2-4.99-.52-12.84-1.04-25.69-1.55-38.54-.02-.39-.15-.61-.49-.8-12.9-7.44-25.8-14.89-38.71-22.33-.07-.05-.16-.09-.32-.17.07.13.09.17.12.2 3.8 4.05 7.6 8.09 11.39 12.13 4.61 4.91 9.22 9.82 13.82 14.74.16.18.31.47.28.69-.38 3.54-.78 7.08-1.18 10.62-.98 8.61-1.97 17.23-2.93 25.84-.06.52-.25.78-.73.98-9.25 3.89-18.49 7.79-27.75 11.67-.32.14-.41.31-.41.64.01 2.68 0 5.36 0 8.04 0 .15.02.3.03.55h16.43c-2.75 4.81-5.43 9.49-8.13 14.22 2.62 1.5 5.2 2.98 7.79 4.47zM70.15 86.08h16.44c.01-.24.02-.41.02-.58 0-2.64-.01-5.29.01-7.94 0-.41-.15-.58-.51-.73-9.24-3.88-18.46-7.77-27.7-11.65-.42-.17-.62-.39-.67-.86-.49-4.5-1.01-9-1.52-13.5-.86-7.62-1.72-15.24-2.6-22.85-.04-.4.03-.66.3-.95 7.03-7.48 14.05-14.96 21.07-22.45L79.19.1c-.1-.03-.18 0-.24.04-12.93 7.46-25.86 14.93-38.8 22.39-.3.17-.42.37-.43.72-.19 4.84-.4 9.69-.59 14.54-.4 9.66-.79 19.32-1.17 28.99-.01.41-.15.66-.51.89C25.17 75.42 12.9 83.2.61 90.95c-.46.3-.61.6-.61 1.14.01 14.83.01 29.65.01 44.48 0 .07.01.15.03.34.08-.19.12-.26.14-.34.93-3.07 1.85-6.13 2.78-9.2 2.62-8.65 5.23-17.29 7.86-25.94.07-.23.3-.5.52-.59 11.24-4.91 22.49-9.8 33.73-14.7.36-.16.59-.16.91.09 8.04 6.1 16.08 12.19 24.12 18.29.29.21.48.23.79.05 2.3-1.33 4.62-2.65 6.92-3.98.16-.09.31-.19.47-.3-2.7-4.71-5.37-9.38-8.13-14.21zM8.53 151.44c-.01.03-.02.05-.03.07.25.15.5.3.76.45 12.67 7.37 25.34 14.75 38.01 22.12.31.18.56.33.97.12 3.73-1.97 7.48-3.9 11.23-5.85 9.25-4.81 18.5-9.61 27.75-14.42.3-.16.53-.16.84 0 12.82 6.79 25.65 13.57 38.47 20.35.4.22.7.23 1.11 0 12.88-7.39 25.77-14.77 38.66-22.14.07-.05.13-.11.27-.22-.16.02-.23.01-.29.03-11.93 2.75-23.86 5.49-35.79 8.25-.3.07-.53.06-.79-.14-9.84-7.34-19.69-14.68-29.54-22-.33-.24-.4-.46-.35-.84.58-4.34 1.13-8.68 1.69-13.02.73-5.67 1.46-11.34 2.21-17 .04-.35-.06-.51-.35-.68-2.34-1.36-4.68-2.73-7.02-4.1-.11-.07-.23-.12-.37-.19-2.78 4.73-5.54 9.43-8.34 14.18-2.75-4.76-5.46-9.43-8.17-14.12-.09.04-.16.05-.21.09-2.43 1.39-4.85 2.79-7.28 4.18-.31.17-.31.38-.27.67.28 2.23.55 4.47.82 6.71.95 7.81 1.9 15.62 2.86 23.43.04.3-.03.46-.26.63-9.95 7.29-19.89 14.58-29.84 21.87-.17.12-.47.18-.68.13-9.49-2.24-18.97-4.5-28.46-6.75-2.54-.6-5.07-1.21-7.61-1.81z"/><path class="fil0" d="M8.53 151.44c2.54.6 5.07 1.21 7.61 1.81 9.49 2.25 18.97 4.51 28.46 6.75.21.05.51-.01.68-.13 9.95-7.29 19.89-14.58 29.84-21.87.23-.17.3-.33.26-.63-.96-7.81-1.91-15.62-2.86-23.43-.27-2.24-.54-4.48-.82-6.71-.04-.29-.04-.5.27-.67 2.43-1.39 4.85-2.79 7.28-4.18.05-.04.12-.05.21-.09 2.71 4.69 5.42 9.36 8.17 14.12 2.8-4.75 5.56-9.45 8.34-14.18.14.07.26.12.37.19 2.34 1.37 4.68 2.74 7.02 4.1.29.17.39.33.35.68-.75 5.66-1.48 11.33-2.21 17-.56 4.34-1.11 8.68-1.69 13.02-.05.38.02.6.35.84 9.85 7.32 19.7 14.66 29.54 22 .26.2.49.21.79.14 11.93-2.76 23.86-5.5 35.79-8.25.06-.02.13-.01.29-.03-.14.11-.2.17-.27.22-12.89 7.37-25.78 14.75-38.66 22.14-.41.23-.71.22-1.11 0-12.82-6.78-25.65-13.56-38.47-20.35-.31-.16-.54-.16-.84 0-9.25 4.81-18.5 9.61-27.75 14.42-3.75 1.95-7.5 3.88-11.23 5.85-.41.21-.66.06-.97-.12-12.67-7.37-25.34-14.75-38.01-22.12-.26-.15-.51-.3-.76-.45.01-.02.02-.04.03-.07zm61.62-65.36c2.76 4.83 5.43 9.5 8.13 14.21-.16.11-.31.21-.47.3-2.3 1.33-4.62 2.65-6.92 3.98-.31.18-.5.16-.79-.05-8.04-6.1-16.08-12.19-24.12-18.29-.32-.25-.55-.25-.91-.09-11.24 4.9-22.49 9.79-33.73 14.7-.22.09-.45.36-.52.59-2.63 8.65-5.24 17.29-7.86 25.94-.93 3.07-1.85 6.13-2.78 9.2-.02.08-.06.15-.14.34-.02-.19-.03-.27-.03-.34 0-14.83 0-29.65-.01-44.48 0-.54.15-.84.61-1.14C12.9 83.2 25.17 75.42 37.45 67.67c.36-.23.5-.48.51-.89.38-9.67.77-19.33 1.17-28.99.19-4.85.4-9.7.59-14.54.01-.35.13-.55.43-.72C53.09 15.07 66.02 7.6 78.95.14c.06-.04.14-.07.24-.04l-4.2 4.47c-7.02 7.49-14.04 14.97-21.07 22.45-.27.29-.34.55-.3.95.88 7.61 1.74 15.23 2.6 22.85.51 4.5 1.03 9 1.52 13.5.05.47.25.69.67.86 9.24 3.88 18.46 7.77 27.7 11.65.36.15.51.32.51.73-.02 2.65-.01 5.3-.01 7.94 0 .17-.01.34-.02.58H70.15zm34.67 18.71c-2.59-1.49-5.17-2.97-7.79-4.47 2.7-4.73 5.38-9.41 8.13-14.22H88.73c-.01-.25-.03-.4-.03-.55 0-2.68.01-5.36 0-8.04 0-.33.09-.5.41-.64 9.26-3.88 18.5-7.78 27.75-11.67.48-.2.67-.46.73-.98.96-8.61 1.95-17.23 2.93-25.84.4-3.54.8-7.08 1.18-10.62.03-.22-.12-.51-.28-.69-4.6-4.92-9.21-9.83-13.82-14.74-3.79-4.04-7.59-8.08-11.39-12.13-.03-.03-.05-.07-.12-.2.16.08.25.12.32.17 12.91 7.44 25.81 14.89 38.71 22.33.34.19.47.41.49.8.51 12.85 1.03 25.7 1.55 38.54.07 1.67.15 3.33.2 4.99.01.38.14.6.47.81 12.26 7.75 24.52 15.52 36.79 23.26.5.32.7.63.7 1.24-.02 14.8-.01 29.59-.01 44.39v.25c-.02 0-.05.01-.07.02-.05-.13-.1-.25-.14-.38-3.52-11.63-7.05-23.27-10.55-34.9-.13-.4-.34-.61-.71-.77-11.22-4.87-22.44-9.75-33.65-14.64-.35-.15-.56-.09-.85.12-8.04 6.1-16.09 12.19-24.13 18.28-.12.1-.25.18-.39.28z"/><path class="fil0" d="M101.92 137.57c.42-3.28.84-6.5 1.26-9.73.15-1.2.33-2.39.45-3.58.05-.4.21-.63.55-.83 4.84-2.77 9.67-5.55 14.51-8.32.34-.2.47-.39.47-.79 0-5.62.02-11.23.02-16.84 0-.32.08-.53.35-.73 3.51-2.66 7.02-5.33 10.53-7.99.06-.05.13-.1.27-.19v.6c-.02 10.52-.03 21.04-.03 31.55 0 .38-.09.61-.44.81-9.25 5.31-18.49 10.63-27.73 15.95-.05.02-.09.04-.21.09zm-28.44-.02c-3.77-2.15-7.46-4.27-11.16-6.38-5.59-3.19-11.18-6.39-16.78-9.58-.29-.17-.49-.32-.49-.72.01-10.72.01-21.45.01-32.14-.02-.01.08.03.16.09 3.5 2.64 6.99 5.28 10.49 7.91.28.21.39.43.39.79.02 5.62.05 11.23.07 16.85 0 .35.11.54.41.71 4.88 2.78 9.75 5.57 14.63 8.34.31.18.45.38.5.74.57 4.43 1.17 8.87 1.77 13.39zM59.39 63.29c2.81-1.62 5.53-3.2 8.26-4.77 6.53-3.77 13.06-7.54 19.59-11.32.37-.22.63-.2 1 .01 9.21 5.33 18.43 10.65 27.65 15.96.04.03.07.07.14.13-1.5.63-2.98 1.26-4.45 1.87-2.65 1.11-5.29 2.2-7.93 3.32-.34.15-.6.15-.93-.04-4.85-2.82-9.71-5.61-14.56-8.43-.33-.19-.55-.18-.87.01-4.85 2.81-9.71 5.61-14.56 8.42-.31.18-.56.2-.89.06-4.12-1.74-8.25-3.46-12.45-5.22zm145.57 111.16h501.31v-47.36H204.96z"/><path class="fil1" d="M212.89 101.64L270.55 1.22h14.88l-65.17 112.8h-14.73L140.2 1.22h14.89zm87.89 12.38h12.85V1.22h-12.85zm49.18-54.83h75.06c1.67 0 3.08-.57 4.22-1.72 1.15-1.14 1.72-2.55 1.72-4.21V20.31c0-1.66-.57-3.09-1.72-4.29-1.14-1.19-2.55-1.79-4.22-1.79h-75.06c-1.67 0-3.1.6-4.3 1.79-1.2 1.2-1.8 2.63-1.8 4.29v32.95c0 1.66.6 3.07 1.8 4.21 1.2 1.15 2.63 1.72 4.3 1.72zm93.85-39.01v33.06c0 5.22-1.83 9.66-5.48 13.31-3.66 3.66-8.1 5.49-13.32 5.49h-17.23l35.4 41.98h-16.73l-35.2-41.98h-41.29c-.94 0-2.97-.21-6.1-.63v42.61h-12.85V1.38h94c5.22 0 9.66 1.83 13.32 5.48 3.65 3.66 5.48 8.1 5.48 13.32zm116.4 74.89V1.22h12.85v94c0 5.22-1.83 9.66-5.49 13.32s-8.11 5.48-13.34 5.48h-75.3c-5.23 0-9.68-1.82-13.34-5.48s-5.49-8.1-5.49-13.32v-94h12.85v93.85c0 1.67.6 3.11 1.8 4.31 1.19 1.19 2.63 1.79 4.3 1.79h75.06c1.67 0 3.1-.6 4.3-1.79 1.2-1.2 1.8-2.64 1.8-4.31zM702.3 20.02v4.39h-12.85v-4.32c0-1.65-.6-3.06-1.79-4.24-1.21-1.19-2.64-1.78-4.31-1.78h-75.06c-1.67 0-3.1.6-4.3 1.79-1.2 1.2-1.8 2.63-1.8 4.3v25.11c0 1.67.6 3.07 1.81 4.21 1.2 1.15 2.63 1.72 4.3 1.72h75.2c5.22 0 9.66 1.83 13.32 5.48 3.65 3.66 5.48 8.1 5.48 13.32v25.22c0 5.22-1.83 9.66-5.49 13.32s-8.11 5.48-13.34 5.48h-75.29c-5.24 0-9.68-1.85-13.34-5.55-3.66-3.7-5.49-8.17-5.49-13.41v-4.38h12.84v4.38c0 1.68.6 3.11 1.8 4.31 1.2 1.2 2.63 1.8 4.3 1.8h75.06c1.67 0 3.1-.59 4.31-1.79 1.19-1.19 1.79-2.63 1.79-4.29V69.97c0-1.66-.6-3.06-1.8-4.21-1.2-1.14-2.64-1.71-4.3-1.71h-75.2c-5.23 0-9.66-1.83-13.32-5.49-3.65-3.65-5.48-8.09-5.48-13.31V20.02c0-5.22 1.83-9.66 5.49-13.31 3.66-3.66 8.1-5.49 13.34-5.49h75.29c5.23 0 9.68 1.83 13.34 5.49 3.66 3.65 5.49 8.09 5.49 13.31z"/><path class="fil1" d="M216.87 101.85L274.53 1.43h14.88l-65.17 112.79h-14.73L144.18 1.43h14.88zm87.89 12.37h12.85V1.43h-12.85zm49.18-54.83H429c1.67 0 3.08-.57 4.22-1.72 1.15-1.14 1.72-2.55 1.72-4.21V20.52c0-1.67-.57-3.1-1.72-4.3-1.14-1.19-2.55-1.79-4.22-1.79h-75.06c-1.67 0-3.1.6-4.3 1.79-1.2 1.2-1.8 2.63-1.8 4.3v32.94c0 1.66.6 3.07 1.8 4.21 1.2 1.15 2.63 1.72 4.3 1.72zm93.85-39.01v33.06c0 5.22-1.83 9.66-5.48 13.31-3.66 3.66-8.1 5.49-13.32 5.49h-17.23l35.4 41.98h-16.73l-35.2-41.98h-41.29c-.94 0-2.97-.21-6.1-.63v42.61h-12.85V1.58h94c5.22 0 9.66 1.83 13.32 5.48 3.65 3.66 5.48 8.1 5.48 13.32zm116.4 74.9V1.43h12.85v93.99c0 5.23-1.83 9.66-5.49 13.32-3.67 3.66-8.11 5.48-13.34 5.48h-75.3c-5.23 0-9.68-1.82-13.34-5.48s-5.49-8.09-5.49-13.32V1.43h12.85v93.85c0 1.66.59 3.1 1.8 4.3 1.19 1.2 2.63 1.8 4.3 1.8h75.06c1.67 0 3.1-.6 4.3-1.8 1.2-1.2 1.8-2.64 1.8-4.3zm142.09-75.06v4.39h-12.84v-4.32c0-1.64-.61-3.06-1.81-4.24-1.19-1.19-2.62-1.78-4.29-1.78h-75.07c-1.67 0-3.1.6-4.3 1.8-1.2 1.19-1.8 2.62-1.8 4.29v25.11c0 1.67.61 3.07 1.8 4.21 1.2 1.15 2.64 1.72 4.31 1.72h75.2c5.22 0 9.66 1.83 13.32 5.48 3.65 3.66 5.48 8.1 5.48 13.32v25.22c0 5.23-1.83 9.66-5.49 13.32s-8.11 5.48-13.33 5.48h-75.31c-5.23 0-9.67-1.85-13.33-5.55-3.67-3.7-5.49-8.17-5.49-13.4v-4.39h12.84v4.39c0 1.67.6 3.1 1.8 4.3 1.2 1.21 2.63 1.81 4.3 1.81h75.07c1.67 0 3.1-.6 4.29-1.8 1.2-1.19 1.81-2.63 1.81-4.29V70.18c0-1.67-.61-3.07-1.81-4.22-1.2-1.14-2.64-1.71-4.3-1.71h-75.2c-5.23 0-9.66-1.83-13.32-5.49-3.66-3.65-5.48-8.09-5.48-13.31V20.22c0-5.22 1.82-9.65 5.49-13.31 3.66-3.66 8.1-5.48 13.33-5.48h75.31c5.22 0 9.67 1.82 13.33 5.48s5.49 8.09 5.49 13.31z"/><path d="M495.95 158.67l6.01-16.51c.13-.37.12-.69-.05-.95-.17-.26-.44-.4-.8-.4h-16.54c-.37 0-.73.14-1.1.4-.35.26-.6.58-.73.95l-6.02 16.51c-.13.36-.11.68.06.94.16.27.43.4.8.4h16.54c.37 0 .73-.13 1.09-.4.37-.26.61-.58.74-.94zm-14.53-20.69h20.74c1.16 0 1.99.41 2.5 1.21.52.81.56 1.79.15 2.94l-6.04 16.57c-.42 1.15-1.17 2.13-2.27 2.93-1.1.81-2.23 1.21-3.38 1.21h-20.74l9.04-24.86zm52.44 0l-1.03 2.83h-19.89l-2.97 8.19h15.98l-1.03 2.83h-15.98l-2.98 8.18h19.89l-1.03 2.83h-22.73l9.06-24.86zm4.11 0h24.89l-1.03 2.83h-11.01l-8.02 22.03h-2.82l8.01-22.03h-11.05zm27.22 12.95h19.23l3.2-8.78c.13-.36.11-.68-.06-.94-.16-.26-.43-.4-.8-.4h-16.54c-.37 0-.73.14-1.09.4-.37.26-.61.58-.74.94l-3.2 8.78zm6.03-12.95h16.6c1.15 0 1.98.41 2.49 1.21.52.81.57 1.79.14 2.94l-7.53 20.71h-2.84l3.31-9.08h-19.23l-3.3 9.08h-2.84l7.55-20.71c.41-1.15 1.17-2.13 2.27-2.94 1.1-.8 2.23-1.21 3.38-1.21zm16.54 24.86l9.05-24.86h2.83l-9.05 24.86zm8.06 0l9.06-24.89h2.84l-8.03 22.06h22.06l-1.03 2.83zm28.84 0l9.04-24.86h2.84l-9.05 24.86zm31.27-3.18l7.89-21.68h2.83l-9.05 24.86h-3.83l-10.34-21.68-7.89 21.68h-2.83l9.05-24.86h3.83zm38.88-17.53l-.36 1h-2.83l.36-.99c.13-.36.11-.67-.06-.94-.16-.26-.43-.39-.8-.39h-16.54c-.37 0-.74.14-1.1.4-.36.26-.6.58-.74.95l-6.01 16.51c-.13.36-.11.68.06.94.16.27.43.4.8.4h16.54c.37 0 .73-.13 1.09-.4.36-.26.61-.57.74-.94l2.23-6.12h-6.15l1.03-2.83h8.98l-3.27 8.98c-.41 1.15-1.18 2.13-2.27 2.93-1.11.81-2.23 1.21-3.38 1.21h-16.59c-1.16 0-1.99-.4-2.5-1.21-.52-.8-.57-1.78-.15-2.93l6.04-16.57c.41-1.15 1.17-2.13 2.27-2.94 1.11-.8 2.23-1.21 3.38-1.21h16.6c1.14 0 1.98.41 2.5 1.21.5.81.55 1.79.13 2.94z" fill="#fefefe" fill-rule="nonzero"/></g></g></svg>